<svg width="84" height="15" viewBox="0 0 84 15" fill="none" xmlns="http://www.w3.org/2000/svg">
<path d="M3.88991 12.108H6.46591V8.77131H9.80256V6.19531H6.46591V2.85227H3.88991V6.19531H0.546875V8.77131H3.88991V12.108ZM12.3482 14H15.5123V9.51918H17.1358L19.5265 14H22.9782L20.2615 9.0142C21.6998 8.36222 22.5307 7.07741 22.5307 5.26847C22.5307 2.57741 20.6962 0.909091 17.7559 0.909091H12.3482V14ZM15.5123 7.02628V3.45952H17.0719C18.4909 3.45952 19.2516 4.05398 19.2516 5.26847C19.2516 6.48295 18.4909 7.02628 17.0719 7.02628H15.5123ZM24.2662 14H33.394V11.4304H27.4302V8.73935H32.9274V6.16335H27.4302V3.47869H33.394V0.909091H24.2662V14ZM35.3755 14H38.5396V9.93466H40.6873C43.6852 9.93466 45.5581 8.15767 45.5581 5.44105C45.5581 2.75 43.7235 0.909091 40.7832 0.909091H35.3755V14ZM38.5396 7.44176V3.45952H40.0993C41.5183 3.45952 42.2789 4.22656 42.2789 5.44105C42.2789 6.64915 41.5183 7.44176 40.0993 7.44176H38.5396ZM59.4735 7.45455C59.4735 3.12713 56.7377 0.730113 53.2221 0.730113C49.6937 0.730113 46.9771 3.12713 46.9771 7.45455C46.9771 11.7628 49.6937 14.179 53.2221 14.179C56.7377 14.179 59.4735 11.782 59.4735 7.45455ZM56.2392 7.45455C56.2392 10.0178 55.1142 11.4048 53.2221 11.4048C51.3365 11.4048 50.2051 10.0178 50.2051 7.45455C50.2051 4.89134 51.3365 3.50426 53.2221 3.50426C55.1142 3.50426 56.2392 4.89134 56.2392 7.45455ZM61.3208 14H64.4849V9.51918H66.1085L68.4991 14H71.9508L69.2342 9.0142C70.6724 8.36222 71.5034 7.07741 71.5034 5.26847C71.5034 2.57741 69.6689 0.909091 66.7285 0.909091H61.3208V14ZM64.4849 7.02628V3.45952H66.0446C67.4636 3.45952 68.2243 4.05398 68.2243 5.26847C68.2243 6.48295 67.4636 7.02628 66.0446 7.02628H64.4849ZM72.8105 3.47869H76.7864V14H79.9057V3.47869H83.8752V0.909091H72.8105V3.47869Z" fill="#FCE21B"/>
</svg>
